<svg width="2115" height="471.98" xmlns="http://www.w3.org/2000/svg">
  <path d="m1275.77 4.08 171.62 467.9h114.47l171.62-467.9h-100.29L1505.3 375.7 1376.73 4.1h-100.96ZM1902.21 286.85 2005.91 470H2115l-112.46-190.57c35.47-9.43 62.18-26.6 80.14-51.51 17.96-24.92 26.93-52.87 26.93-83.84 0-26.94-6.39-51.3-19.19-73.06-12.79-21.78-27.33-39.15-52.92-51.95-25.59-12.8-61.14-15-97.5-15h-176.51v465.93h94.28V286.85h44.44Zm-814.35-3.57c-25.47 23.9-59.65 53.73-102.54 89.48l-23.63 16.75c-3.72 2.64-6.63 6-8.7 10.06a27.52 27.52 0 0 0-3.06 12.96l.54 59.42h331.09V394.2h-197.72c38.87-33.06 70.37-61.32 94.5-84.78 24.13-23.46 45.58-51.05 64.34-82.77 18.77-31.73 28.15-65.02 28.15-99.87-6.55-47.5-35.47-77.35-53.5-93.21C1199.29 17.7 1162.26 0 1111.32 0c-46.47 0-85.89 12.5-110.42 33.57-24.53 21.06-49.32 62.66-51.1 116.28h91.15c.44-25.91 6.7-35.63 18.76-50.6 12.07-14.97 29.27-22.45 51.61-22.45s38.87 6.48 49.6 19.43c10.72 12.96 17.42 20.61 17.42 43.4 0 25.02-9.83 43-26.81 68.92-16.98 25.92-38.2 50.83-63.67 74.73ZM643.9 263.51l170.23 208.44h118.63L734.38 236.03 927.4 4.13H814.13L643.9 213.91V4.13h-54.92c-11.56 0-21.43 4.1-29.61 12.27-8.18 8.18-12.26 18.04-12.26 29.6v384.07c0 11.57 4.08 21.44 12.26 29.61 8.18 8.18 18.05 12.27 29.61 12.27h54.92V263.5Zm1292.65-47.37h-78.78V78.1h78.78c25.59 0 44.67 5.94 57.24 17.84 12.57 11.9 18.86 28.62 18.86 50.17 0 22-6.29 39.17-18.86 51.51-12.57 12.35-31.65 18.52-57.24 18.52ZM41.17 3.98h385.66c11.37 0 21.07 4.02 29.11 12.06C463.98 24.08 468 33.78 468 45.15v385.66c0 11.37-4.02 21.07-12.06 29.12-8.04 8.03-17.74 12.05-29.11 12.05H41.17c-11.37 0-21.07-4.02-29.11-12.06C4.02 451.88 0 442.19 0 430.82V45.14c0-11.37 4.02-21.07 12.06-29.1C20.1 8 29.8 3.97 41.17 3.97Zm3.78 238.96a46.13 46.13 0 1 0 92.26 0 46.13 46.13 0 0 0-92.26 0Zm286.1 0a46.13 46.13 0 1 0 92.25 0 46.13 46.13 0 0 0-92.25 0Zm-123.3.21a46.13 46.13 0 1 0 92.25 0 46.13 46.13 0 0 0-92.26 0Z" fill="#FFF" fill-rule="evenodd"/>
</svg>
